# xmcd
#
# Track frame offsets: 
#        150
#        12414
#        23534
#        36482
#        48144
#        61049
#        71772
#        81380
#        95636
#        106470
#        118499
#        128582
#        139638
#        151377
#        165095
#        176721
#        188065
#        201936
#        212996
#        227414
#        238615
#        253172
#        265113
#        281668
#        295585
#
# Disc length: 4112 seconds
#
# Revision: 0
# Processed by: cddbd v1.5.2PL0 Copyright (c) Steve Scherf et al.
# Submitted via: ExactAudioCopy v1.0b1
#
DISCID=64100e19
DTITLE=Sam and Dave - Sweat 'N' Soul - Anthology
DYEAR=1993
DGENRE=R&B
TTITLE0=I Thank You (mono)
TTITLE1=Wrap It Up (mono)
TTITLE2=Broke Down Piece Of Man (mono)
TTITLE3=Hold It Baby (mono)
TTITLE4=Come On In (mono)
TTITLE5=This Is Your World (mono)
TTITLE6=You Don't Know What You Mean To Me (mono)
TTITLE7=Everybody Got To Believe In Somebody (mono)
TTITLE8=Can't You Find Another Way (Of Doing It) (mono)
TTITLE9=Ain't That A Lot Of Love (mono)
TTITLE10=Don't Turn Your Heater On (mono)
TTITLE11=Soul sister, Bown Sugar (mono)
TTITLE12=Born Again (mono)
TTITLE13=You Left The Water Running (mono)
TTITLE14=Holdin' On (mono)
TTITLE15=I'm Not An Indian Giver (mono)
TTITLE16=One Part Love, Two Parts Pain (mono)
TTITLE17=Baby, Baby Don't Stop Now (mono)
TTITLE18=Standing In The Safety Zone (mono)
TTITLE19=Knock It Out The Park (mono)
TTITLE20=Don't Pull Your Love (mono)
TTITLE21=Jody Ryder Got Killed (mono)
TTITLE22=Starting All Over Again (mono)
TTITLE23=Stop (mono)
TTITLE24=Shop Around (mono)
EXTD=
EXTT0=
EXTT1=
EXTT2=
EXTT3=
EXTT4=
EXTT5=
EXTT6=
EXTT7=
EXTT8=
EXTT9=
EXTT10=
EXTT11=
EXTT12=
EXTT13=
EXTT14=
EXTT15=
EXTT16=
EXTT17=
EXTT18=
EXTT19=
EXTT20=
EXTT21=
EXTT22=
EXTT23=
EXTT24=
PLAYORDER=
